<?xml version="1.0" encoding="utf-8"?>
<!-- Generator: Adobe Illustrator 15.0.0, SVG Export Plug-In . SVG Version: 6.00 Build 0)  -->
<!DOCTYPE svg PUBLIC "-//W3C//DTD SVG 1.1//EN" "http://www.w3.org/Graphics/SVG/1.1/DTD/svg11.dtd">
<svg version="1.1" id="Layer_1" xmlns="http://www.w3.org/2000/svg" xmlns:xlink="http://www.w3.org/1999/xlink" x="0px" y="0px"
	 width="153.501px" height="69.329px" viewBox="220.89 147.909 153.501 69.329"
	 enable-background="new 220.89 147.909 153.501 69.329" xml:space="preserve">
<g>
	<g>
		<path fill="#F2AF31" d="M243.89,170.075h5.984h2.1h0.005l2.051,2.539c0.189,0.236,0.477,0.373,0.777,0.373h7.758
			c0.303,0,0.588-0.137,0.777-0.373l2.051-2.539h0.005h29.983h8.137h21h6.873h17h4h17c2.762,0,5-2.238,5-5v-12.166
			c0-2.762-2.238-5-5-5h-17h-4h-17h-6.873h-21h-8.137h-47.983l-2.056,2.545c-0.189,0.234-0.476,0.371-0.777,0.371h-7.758
			c-0.302,0-0.588-0.137-0.777-0.371l-2.056-2.545h-8.084c-2.718,0-4.919,2.172-4.987,4.875h-0.013v0.125v12.166v32.084v9.438v2.729
			c0,2.762,2.239,5,5,5h8.089l2.051,2.539c0.189,0.236,0.477,0.373,0.777,0.373h7.757c0.304,0,0.588-0.137,0.778-0.373l2.051-2.539
			h47.988h8.137h21h6.873h17h4h17c2.762,0,5-2.238,5-5V197.16c0-2.477-1.805-4.518-4.168-4.916h-17h-4h-17h-7.705h-21h-8.137
			h-29.988l-2.051,2.539c-0.189,0.234-0.476,0.371-0.777,0.371h-7.758c-0.302,0-0.588-0.137-0.777-0.371l-2.051-2.539h-8.089
			c-2.761,0-5-2.238-5-5v-12.168C238.89,172.313,241.129,170.075,243.89,170.075z"/>
		<g>
			<g>
				<g>
					<path fill="#FFFFFF" d="M243.819,162.472h-1.679v-5.854h1.679v0.396c0,0.131-0.023,0.348-0.06,0.575
						c0.336-0.637,0.863-1.116,1.631-1.116v1.645c-0.875,0-1.571,0.504-1.571,1.463V162.472z"/>
					<path fill="#FFFFFF" d="M247.923,159.905c0.12,0.971,0.72,1.33,1.379,1.33c0.648,0,1.091-0.299,1.379-0.719l1.115,0.803
						c-0.624,0.84-1.259,1.271-2.59,1.271c-1.715,0-2.976-1.26-2.976-3.059c0-1.666,1.127-3.045,2.927-3.045
						c1.979,0,2.759,1.414,2.759,3.213v0.205L247.923,159.905L247.923,159.905z M247.971,158.874h2.314
						c-0.108-0.672-0.624-1.02-1.14-1.02C248.606,157.854,248.139,158.19,247.971,158.874z"/>
					<path fill="#FFFFFF" d="M253.096,165.47v-8.853h1.679v0.588c0.456-0.479,1.056-0.719,1.703-0.719
						c1.619,0,2.542,1.475,2.542,3.033c0,1.584-0.888,3.069-2.531,3.069c-0.684,0-1.318-0.336-1.774-0.887v3.767L253.096,165.47
						L253.096,165.47z M257.354,159.544c0-0.862-0.432-1.559-1.308-1.559c-0.779,0-1.295,0.647-1.295,1.547
						c0,0.805,0.526,1.572,1.295,1.572C256.91,161.104,257.354,160.396,257.354,159.544z"/>
					<path fill="#FFFFFF" d="M261.531,159.905c0.12,0.971,0.721,1.33,1.38,1.33c0.646,0,1.091-0.299,1.379-0.719l1.114,0.803
						c-0.624,0.84-1.259,1.271-2.59,1.271c-1.715,0-2.975-1.26-2.975-3.059c0-1.666,1.127-3.045,2.926-3.045
						c1.979,0,2.759,1.414,2.759,3.213v0.205L261.531,159.905L261.531,159.905z M261.579,158.874h2.313
						c-0.107-0.672-0.624-1.02-1.139-1.02C262.215,157.854,261.747,158.19,261.579,158.874z"/>
					<path fill="#FFFFFF" d="M272.053,162.472c-0.72,0-1.211-0.386-1.475-0.996c-0.336,0.563-1.043,1.114-2.087,1.114
						c-1.296,0-1.955-0.84-1.955-1.715c0-0.971,0.792-1.918,2.423-1.918c0.492,0,0.971,0.06,1.415,0.144v-0.191
						c0-0.576-0.396-0.959-1.043-0.959c-0.456,0-0.828,0.203-1.067,0.588l-1.175-0.877c0,0,0.671-1.199,2.327-1.199
						c1.631,0,2.626,0.974,2.626,2.375v1.765c0,0.215,0.144,0.348,0.359,0.348h0.24v1.523L272.053,162.472L272.053,162.472z
						 M270.374,160.144c-0.313-0.06-0.696-0.119-0.923-0.119c-0.685,0-1.212,0.229-1.212,0.707c0,0.324,0.24,0.541,0.685,0.541
						C269.63,161.272,270.158,160.78,270.374,160.144z"/>
					<path fill="#FFFFFF" d="M274.107,156.618v-2.086h1.68v2.086h0.827v1.56h-0.827v4.295h-1.68v-4.295h-0.814v-1.56H274.107z"/>
					<path fill="#FFFFFF" d="M286.885,162.472h-1.679v-0.396c0-0.096,0.012-0.24,0.036-0.408c-0.385,0.554-0.984,0.947-1.775,0.947
						c-1.211,0-2.123-0.947-2.123-2.518v-3.479h1.691v3.383c0,0.814,0.516,1.234,1.08,1.234c0.503,0,1.055-0.396,1.091-1.188v-3.43
						h1.679V162.472L286.885,162.472z"/>
					<path fill="#FFFFFF" d="M290.103,162.472h-1.679v-5.854h1.679v0.396c0,0.096-0.012,0.239-0.036,0.407
						c0.385-0.553,0.973-0.948,1.775-0.948c1.211,0,2.123,0.948,2.123,2.52v3.479h-1.691v-3.384c0-0.813-0.516-1.233-1.08-1.233
						c-0.504,0-1.066,0.406-1.091,1.188V162.472L290.103,162.472z"/>
					<path fill="#FFFFFF" d="M295.959,156.618v-2.086h1.679v2.086h0.828v1.56h-0.828v4.295h-1.679v-4.295h-0.815v-1.56H295.959z"/>
					<path fill="#FFFFFF" d="M300.578,153.704c0.6,0,1.104,0.504,1.104,1.104c0,0.6-0.504,1.104-1.104,1.104
						c-0.601,0-1.104-0.504-1.104-1.104C299.474,154.208,299.979,153.704,300.578,153.704z M299.703,162.472v-5.854h1.715v5.854
						H299.703z"/>
					<path fill="#FFFFFF" d="M303.051,162.472v-8.996h1.703v8.996H303.051z"/>
				</g>
			</g>
			<rect x="309.053" y="151.618" fill="#FFFFFF" width="57.215" height="14.779"/>
			<g>
				<polygon fill="#FFFFFF" points="359.433,201.073 362.438,196.841 365.479,201.062 				"/>
				<path fill="#FFFFFF" d="M365.927,200.907l-3.041-4.221c-0.085-0.117-0.258-0.191-0.448-0.191c-0.001,0-0.001,0-0.001,0
					c-0.19,0-0.364,0.074-0.448,0.193l-3.005,4.231c-0.074,0.107-0.065,0.234,0.025,0.334c0.092,0.103,0.252,0.164,0.424,0.164
					c0.001,0,0.002,0,0.002,0l2.521-0.006v1.254c0,2.832-3.34,5.14-7.443,5.14H338.16c-0.276,0-0.5,0.151-0.5,0.344
					c0,0.191,0.224,0.346,0.5,0.346h16.353c4.655,0,8.443-2.615,8.443-5.828v-1.256l2.522-0.006c0.174,0,0.334-0.063,0.424-0.164
					C365.995,201.14,366.003,201.015,365.927,200.907z M362.956,200.722v-0.367c0-0.191-0.226-0.347-0.5-0.347
					c-0.277,0-0.5,0.154-0.5,0.347v0.367l-1.722,0.004l2.205-3.105l2.232,3.096L362.956,200.722z"/>
			</g>
		</g>
	</g>
</g>
</svg>
