<?xml version="1.0" encoding="utf-8"?>
<!-- Generator: Adobe Illustrator 15.0.0, SVG Export Plug-In . SVG Version: 6.00 Build 0)  -->
<!DOCTYPE svg PUBLIC "-//W3C//DTD SVG 1.1//EN" "http://www.w3.org/Graphics/SVG/1.1/DTD/svg11.dtd">
<svg version="1.1" id="Layer_1" xmlns="http://www.w3.org/2000/svg" xmlns:xlink="http://www.w3.org/1999/xlink" x="0px" y="0px"
	 width="115.501px" height="66.417px" viewBox="239.89 277.251 115.501 66.417"
	 enable-background="new 239.89 277.251 115.501 66.417" xml:space="preserve">
<g>
	<g>
		<path fill="#F2AF31" d="M266.393,343.668h83.998c2.762,0,5-2.238,5-5v-12.166c0-2.478-1.805-4.519-4.168-4.916h-66.83
			l-2.051,2.538c-0.189,0.234-0.476,0.371-0.777,0.371h-7.758c-0.302,0-0.588-0.137-0.777-0.371l-2.051-2.538h-8.089
			c-2.761,0-5-2.238-5-5v-12.168c0-2.763,2.239-5,5-5h5.984h2.1h0.005l2.051,2.538c0.189,0.236,0.477,0.373,0.777,0.373h7.758
			c0.303,0,0.588-0.137,0.777-0.373l2.051-2.538h0.005h65.993c2.762,0,5-2.238,5-5.001v-12.166c0-2.762-2.238-5-5-5h-83.993
			l-2.056,2.545c-0.189,0.234-0.476,0.371-0.777,0.371h-7.758c-0.302,0-0.588-0.137-0.776-0.371l-2.057-2.545h-8.084
			c-2.718,0-4.919,2.172-4.987,4.875h-0.013v0.125v12.166v32.085v9.438v2.729c0,2.763,2.239,5,5,5h8.089"/>
		<g>
			<g>
				<g>
					<path fill="#FFFFFF" d="M258.155,287.448v4.365h-1.702v-4.365h-0.841v-1.488h0.841v-1.055c0-1.416,0.994-2.23,2.158-2.23
						c0.408,0,0.769,0.07,1.067,0.203l-0.552,1.429c-0.108-0.062-0.24-0.097-0.372-0.097c-0.384,0-0.601,0.299-0.601,0.814v0.936
						h1.235v1.488H258.155z"/>
					<path fill="#FFFFFF" d="M260.208,288.874c0-1.737,1.343-3.045,3.059-3.045c1.715,0,3.059,1.308,3.059,3.045
						c0,1.74-1.344,3.047-3.059,3.047C261.551,291.921,260.208,290.614,260.208,288.874z M264.682,288.874
						c0-0.887-0.563-1.547-1.415-1.547c-0.864,0-1.427,0.66-1.427,1.547c0,0.9,0.587,1.562,1.427,1.562
						C264.118,290.435,264.682,289.774,264.682,288.874z"/>
					<path fill="#FFFFFF" d="M269.183,291.813h-1.679v-5.854h1.679v0.396c0,0.131-0.023,0.348-0.06,0.576
						c0.336-0.638,0.862-1.117,1.631-1.117v1.645c-0.875,0-1.571,0.504-1.571,1.463V291.813z"/>
					<path fill="#FFFFFF" d="M273.287,289.247c0.119,0.972,0.72,1.33,1.379,1.33c0.646,0,1.091-0.299,1.379-0.719l1.115,0.803
						c-0.624,0.84-1.26,1.271-2.591,1.271c-1.715,0-2.975-1.261-2.975-3.06c0-1.666,1.127-3.045,2.926-3.045
						c1.979,0,2.759,1.414,2.759,3.213v0.205L273.287,289.247L273.287,289.247z M273.335,288.216h2.313
						c-0.107-0.672-0.624-1.02-1.139-1.02C273.971,287.196,273.503,287.532,273.335,288.216z"/>
					<path fill="#FFFFFF" d="M279.947,291.813l-2.135-5.854h1.823l1.067,3.047c0.119,0.336,0.191,0.757,0.203,0.841
						c0.013-0.062,0.084-0.492,0.204-0.841l1.067-3.047H284l-2.136,5.854H279.947z"/>
					<path fill="#FFFFFF" d="M286.223,289.247c0.12,0.972,0.72,1.33,1.379,1.33c0.648,0,1.091-0.299,1.379-0.719l1.115,0.803
						c-0.624,0.84-1.259,1.271-2.59,1.271c-1.715,0-2.976-1.261-2.976-3.06c0-1.666,1.128-3.045,2.927-3.045
						c1.979,0,2.759,1.414,2.759,3.213v0.205L286.223,289.247L286.223,289.247z M286.271,288.216h2.314
						c-0.108-0.672-0.624-1.02-1.14-1.02C286.906,287.196,286.439,287.532,286.271,288.216z"/>
					<path fill="#FFFFFF" d="M293.075,291.813h-1.68v-5.854h1.68v0.396c0,0.131-0.024,0.348-0.061,0.576
						c0.336-0.638,0.863-1.117,1.631-1.117v1.645c-0.875,0-1.57,0.504-1.57,1.463V291.813z"/>
				</g>
			</g>
			<g>
				<polygon fill="#FFFFFF" points="340.312,330.709 343.316,326.475 346.357,330.695 				"/>
				<path fill="#FFFFFF" d="M346.806,330.541l-3.041-4.221c-0.085-0.117-0.258-0.189-0.448-0.189c-0.001,0-0.001,0-0.001,0
					c-0.19,0-0.363,0.073-0.447,0.192l-3.006,4.232c-0.074,0.105-0.065,0.233,0.025,0.334c0.092,0.102,0.252,0.163,0.424,0.163
					c0.001,0,0.002,0,0.002,0l2.521-0.005v1.254c0,2.832-3.34,5.139-7.443,5.139h-16.353c-0.276,0-0.5,0.152-0.5,0.344
					c0,0.19,0.224,0.347,0.5,0.347h16.353c4.655,0,8.443-2.615,8.443-5.828v-1.256l2.522-0.007c0.175,0,0.334-0.063,0.425-0.164
					C346.874,330.774,346.882,330.648,346.806,330.541z M343.835,330.355v-0.367c0-0.189-0.226-0.345-0.5-0.345
					c-0.277,0-0.5,0.154-0.5,0.345v0.368l-1.722,0.004l2.205-3.104l2.232,3.096L343.835,330.355z"/>
			</g>
		</g>
	</g>
</g>
</svg>
