<?xml version="1.0" encoding="utf-8"?>
<!-- Generator: Adobe Illustrator 15.0.0, SVG Export Plug-In . SVG Version: 6.00 Build 0)  -->
<!DOCTYPE svg PUBLIC "-//W3C//DTD SVG 1.1//EN" "http://www.w3.org/Graphics/SVG/1.1/DTD/svg11.dtd">
<svg version="1.1" id="Layer_1" xmlns="http://www.w3.org/2000/svg" xmlns:xlink="http://www.w3.org/1999/xlink" x="0px" y="0px"
	 width="132.501px" height="69.328px" viewBox="231.39 406.594 132.501 69.328"
	 enable-background="new 231.39 406.594 132.501 69.328" xml:space="preserve">
<g>
	<g>
		<path fill="#F2AF31" d="M254.39,428.76h5.984h2.1h0.005l2.051,2.539c0.189,0.234,0.477,0.372,0.777,0.372h7.758
			c0.303,0,0.588-0.138,0.777-0.372l2.051-2.539h0.005h38.12h27.873h17c2.762,0,5-2.238,5-5v-12.167c0-2.763-2.238-5-5-5h-17
			h-27.873h-56.12l-2.056,2.545c-0.189,0.234-0.476,0.372-0.777,0.372h-7.758c-0.302,0-0.588-0.138-0.777-0.372l-2.056-2.545h-8.084
			c-2.718,0-4.919,2.172-4.987,4.875h-0.013v0.125v12.167v32.083v9.438v2.729c0,2.762,2.239,5,5,5h8.089l2.051,2.539
			c0.189,0.234,0.477,0.372,0.777,0.372h7.757c0.304,0,0.588-0.138,0.778-0.372l2.051-2.539h56.125h27.873h17c2.762,0,5-2.238,5-5
			v-12.167c0-2.478-1.805-4.519-4.168-4.916h-17h-28.705h-38.125l-2.051,2.539c-0.189,0.234-0.476,0.372-0.777,0.372h-7.758
			c-0.302,0-0.588-0.138-0.777-0.372l-2.051-2.539h-8.089c-2.761,0-5-2.238-5-5V433.76C249.39,430.998,251.629,428.76,254.39,428.76
			z"/>
		<g>
			<g>
				<g>
					<path fill="#FFFFFF" d="M253.576,412.388c0.6,0,1.104,0.504,1.104,1.104c0,0.601-0.504,1.104-1.104,1.104
						c-0.601,0-1.104-0.504-1.104-1.104C252.472,412.892,252.976,412.388,253.576,412.388z M252.7,421.155v-5.853h1.715v5.853H252.7
						z"/>
					<path fill="#FFFFFF" d="M258.063,416.79v4.365h-1.703v-4.365h-0.84v-1.486h0.84v-1.057c0-1.415,0.995-2.229,2.159-2.229
						c0.408,0,0.769,0.071,1.067,0.203l-0.552,1.428c-0.108-0.06-0.24-0.096-0.372-0.096c-0.385,0-0.601,0.3-0.601,0.814v0.937
						h1.235v1.486H258.063z"/>
				</g>
			</g>
			<g>
				<g>
					<path fill="#FFFFFF" d="M327.096,415.303v-2.087h1.68v2.087h0.827v1.559h-0.827v4.294h-1.68v-4.294h-0.815v-1.559H327.096z"/>
					<path fill="#FFFFFF" d="M330.779,421.155v-8.995h1.681v3.538c0,0.097-0.013,0.252-0.036,0.408
						c0.384-0.552,0.972-0.948,1.773-0.948c1.213,0,2.123,0.948,2.123,2.52v3.479h-1.689v-3.382c0-0.814-0.518-1.235-1.079-1.235
						c-0.516,0-1.021,0.407-1.092,1.247v3.37L330.779,421.155L330.779,421.155z"/>
					<path fill="#FFFFFF" d="M339.191,418.59c0.119,0.972,0.72,1.331,1.379,1.331c0.647,0,1.093-0.301,1.38-0.721l1.114,0.805
						c-0.623,0.84-1.259,1.271-2.59,1.271c-1.715,0-2.975-1.26-2.975-3.059c0-1.667,1.127-3.046,2.926-3.046
						c1.979,0,2.76,1.415,2.76,3.214v0.204L339.191,418.59L339.191,418.59z M339.239,417.558h2.314
						c-0.108-0.672-0.624-1.021-1.14-1.021C339.875,416.538,339.407,416.874,339.239,417.558z"/>
					<path fill="#FFFFFF" d="M346.043,421.155h-1.681v-5.853h1.681v0.396c0,0.097-0.013,0.24-0.036,0.408
						c0.384-0.552,0.972-0.948,1.773-0.948c1.213,0,2.123,0.948,2.123,2.52v3.479h-1.689v-3.382c0-0.814-0.518-1.235-1.079-1.235
						c-0.504,0-1.068,0.407-1.092,1.188V421.155L346.043,421.155z"/>
				</g>
			</g>
			<rect x="264.553" y="410.303" fill="#FFFFFF" width="57.215" height="14.778"/>
		</g>
	</g>
</g>
</svg>
