<?xml version="1.0" encoding="utf-8"?>
<!-- Generator: Adobe Illustrator 15.0.0, SVG Export Plug-In . SVG Version: 6.00 Build 0)  -->
<!DOCTYPE svg PUBLIC "-//W3C//DTD SVG 1.1//EN" "http://www.w3.org/Graphics/SVG/1.1/DTD/svg11.dtd">
<svg version="1.1" id="Layer_1" xmlns="http://www.w3.org/2000/svg" xmlns:xlink="http://www.w3.org/1999/xlink" x="0px" y="0px"
	 width="132.501px" height="113.582px" viewBox="354.389 239.935 132.501 113.582"
	 enable-background="new 354.389 239.935 132.501 113.582" xml:space="preserve">
<g>
	<path fill="#F2AF31" d="M398.897,262.102h38.12h27.873h17c2.762,0,5-2.238,5-5v-12.167c0-2.762-2.238-5-5-5h-17h-27.873h-56.12
		l-2.057,2.545c-0.188,0.235-0.476,0.372-0.776,0.372h-7.758c-0.303,0-0.589-0.137-0.777-0.372l-2.056-2.545h-8.084
		c-2.719,0-4.919,2.172-4.987,4.875h-0.013v0.125v12.167v31.961v0.122v0.003v9.436v2.729v0.003v32.083v9.438v2.729
		c0,2.762,2.238,5,5,5h8.089l2.051,2.539c0.188,0.235,0.476,0.372,0.777,0.372h7.757c0.303,0,0.588-0.137,0.777-0.372l2.052-2.539
		h56.125h27.873h17c2.762,0,5-2.238,5-5v-12.167c0-2.477-1.805-4.518-4.168-4.916h-17h-28.705h-38.125l-2.052,2.539
		c-0.188,0.235-0.476,0.372-0.776,0.372h-7.758c-0.303,0-0.589-0.137-0.777-0.372l-2.051-2.539h-8.089c-2.762,0-5-2.238-5-5v-12.167
		c0-2.762,2.238-5,5-5h5.983h2.101h0.005l2.051,2.539c0.188,0.235,0.476,0.372,0.777,0.372h7.758c0.302,0,0.588-0.137,0.776-0.372
		l2.052-2.539h0.005h38.12h27.873h17c2.762,0,5-2.238,5-5v-0.003v-12.164v-0.003c0-0.329-0.036-0.647-0.097-0.959
		c-0.021-0.103-0.058-0.198-0.083-0.298c-0.054-0.202-0.107-0.402-0.186-0.594c-0.049-0.123-0.112-0.236-0.17-0.354
		c-0.077-0.153-0.153-0.307-0.244-0.45c-0.081-0.128-0.173-0.246-0.265-0.367c-0.088-0.114-0.177-0.228-0.274-0.332
		c-0.115-0.127-0.236-0.244-0.365-0.357c-0.09-0.08-0.182-0.156-0.275-0.229c-0.151-0.117-0.305-0.226-0.469-0.324
		c-0.084-0.051-0.172-0.094-0.259-0.141c-0.186-0.098-0.372-0.188-0.57-0.263c-0.071-0.027-0.146-0.045-0.219-0.067
		c-0.222-0.07-0.442-0.137-0.676-0.177c-0.006-0.002-0.012-0.004-0.018-0.005h-0.027c-0.264-0.043-0.529-0.081-0.805-0.081h-17
		h-27.873h-38.12h-0.005l-2.052,2.539c-0.188,0.235-0.476,0.372-0.776,0.372h-7.758c-0.303,0-0.589-0.137-0.777-0.372l-2.051-2.539
		h-4.581l-0.065,0.081h-3.441c-2.762,0-5-2.238-5-5v-12.167c0-2.762,2.238-5,5-5h5.983h2.101h0.005l2.051,2.539
		c0.189,0.235,0.476,0.372,0.777,0.372h7.758c0.302,0,0.588-0.137,0.777-0.372l2.051-2.539H398.897z"/>
	<g>
		<g>
			<g>
				<path fill="#FFFFFF" d="M376.576,245.73c0.6,0,1.104,0.504,1.104,1.104c0,0.6-0.505,1.104-1.104,1.104s-1.104-0.504-1.104-1.104
					C375.472,246.234,375.976,245.73,376.576,245.73z M375.7,254.498v-5.853h1.715v5.853H375.7z"/>
				<path fill="#FFFFFF" d="M381.063,250.133v4.365h-1.703v-4.365h-0.84v-1.486h0.84v-1.057c0-1.414,0.995-2.23,2.159-2.23
					c0.407,0,0.768,0.072,1.066,0.203l-0.552,1.429c-0.108-0.06-0.24-0.097-0.372-0.097c-0.384,0-0.6,0.301-0.6,0.816v0.936h1.234
					v1.486H381.063z"/>
			</g>
		</g>
		<g>
			<g>
				<path fill="#FFFFFF" d="M376.971,296.932c0.119,0.973,0.72,1.332,1.379,1.332c0.646,0,1.091-0.301,1.379-0.721l1.115,0.805
					c-0.624,0.84-1.26,1.271-2.591,1.271c-1.715,0-2.975-1.26-2.975-3.059c0-1.668,1.127-3.047,2.926-3.047
					c1.979,0,2.759,1.416,2.759,3.215v0.203L376.971,296.932L376.971,296.932z M377.02,295.9h2.313
					c-0.107-0.672-0.624-1.02-1.139-1.02C377.655,294.881,377.188,295.217,377.02,295.9z"/>
				<path fill="#FFFFFF" d="M382.144,299.497v-8.993h1.703v8.993H382.144z"/>
				<path fill="#FFFFFF" d="M385.972,297.531c0.407,0.47,1.055,0.66,1.618,0.66c0.359,0,0.624-0.145,0.624-0.358
					c0-0.302-0.3-0.443-0.792-0.588c-0.911-0.265-2.039-0.769-2.039-1.955c0-1.127,1.092-1.765,2.075-1.765
					c0.889,0,1.512,0.302,2.039,0.853l-0.936,1.008c-0.252-0.275-0.721-0.527-1.067-0.527c-0.312,0-0.54,0.146-0.54,0.371
					c0,0.289,0.335,0.433,0.863,0.588c0.888,0.265,2.027,0.816,2.027,1.933c0,1.104-0.947,1.87-2.268,1.87
					c-1.056,0-1.919-0.301-2.555-0.983L385.972,297.531z"/>
				<path fill="#FFFFFF" d="M392.355,296.932c0.12,0.973,0.72,1.332,1.379,1.332c0.646,0,1.091-0.301,1.379-0.721l1.115,0.805
					c-0.624,0.84-1.259,1.271-2.59,1.271c-1.716,0-2.976-1.26-2.976-3.059c0-1.668,1.127-3.047,2.926-3.047
					c1.979,0,2.76,1.416,2.76,3.215v0.203L392.355,296.932L392.355,296.932z M392.403,295.9h2.313
					c-0.107-0.672-0.623-1.02-1.139-1.02C393.039,294.881,392.571,295.217,392.403,295.9z"/>
			</g>
		</g>
		<g>
			<g>
				<path fill="#FFFFFF" d="M450.096,248.646v-2.088h1.68v2.088h0.827v1.56h-0.827v4.293h-1.68v-4.293h-0.815v-1.56H450.096z"/>
				<path fill="#FFFFFF" d="M453.779,254.498v-8.994h1.68v3.537c0,0.096-0.012,0.252-0.035,0.408
					c0.384-0.552,0.972-0.947,1.773-0.947c1.212,0,2.123,0.947,2.123,2.518v3.479h-1.689v-3.381c0-0.816-0.518-1.236-1.079-1.236
					c-0.517,0-1.021,0.408-1.093,1.248v3.369L453.779,254.498L453.779,254.498z"/>
				<path fill="#FFFFFF" d="M462.191,251.932c0.119,0.973,0.719,1.332,1.379,1.332c0.647,0,1.092-0.301,1.379-0.721l1.115,0.805
					c-0.623,0.84-1.259,1.271-2.59,1.271c-1.715,0-2.976-1.261-2.976-3.06c0-1.668,1.128-3.047,2.927-3.047
					c1.979,0,2.76,1.416,2.76,3.215v0.203L462.191,251.932L462.191,251.932z M462.239,250.9h2.314
					c-0.108-0.672-0.624-1.02-1.141-1.02C462.875,249.881,462.407,250.217,462.239,250.9z"/>
				<path fill="#FFFFFF" d="M469.044,254.498h-1.681v-5.853h1.681v0.396c0,0.096-0.013,0.239-0.036,0.408
					c0.384-0.552,0.972-0.947,1.773-0.947c1.212,0,2.123,0.947,2.123,2.518v3.479h-1.689v-3.381c0-0.816-0.518-1.236-1.079-1.236
					c-0.504,0-1.068,0.408-1.093,1.188L469.044,254.498L469.044,254.498z"/>
			</g>
		</g>
		<rect x="387.553" y="243.645" fill="#FFFFFF" width="57.215" height="14.779"/>
	</g>
</g>
</svg>
