<?xml version="1.0" encoding="utf-8"?>
<!-- Generator: Adobe Illustrator 15.0.0, SVG Export Plug-In . SVG Version: 6.00 Build 0)  -->
<!DOCTYPE svg PUBLIC "-//W3C//DTD SVG 1.1//EN" "http://www.w3.org/Graphics/SVG/1.1/DTD/svg11.dtd">
<svg version="1.1" id="Layer_1" xmlns="http://www.w3.org/2000/svg" xmlns:xlink="http://www.w3.org/1999/xlink" x="0px" y="0px"
	 width="129.501px" height="25.078px" viewBox="232.89 794.619 129.501 25.078"
	 enable-background="new 232.89 794.619 129.501 25.078" xml:space="preserve">
<g>
	<g>
		<path fill="#F2AF31" d="M357.391,794.619h-0.588h-6.133h-0.279h-0.588h-4.785h-1.348h-7.32h-18.959h-0.588h-6.133h-0.279h-0.588
			h-1.031h-3.754h-1.348h-7.321h-36.951l-2.055,2.545c-0.191,0.234-0.477,0.371-0.779,0.371h-7.756
			c-0.303,0-0.588-0.137-0.779-0.371l-2.055-2.545h-8.084c-2.762,0-5,2.238-5,5v12.166c0,2.763,2.238,5,5,5h8.088l2.051,2.539
			c0.191,0.236,0.478,0.373,0.779,0.373h7.756c0.304,0,0.588-0.137,0.779-0.373l2.051-2.539h36.955h7.321h1.348h3.754h1.031h0.588
			h0.279h6.133h0.588h18.959h7.32h1.348h4.785h0.588h0.279h6.133h0.588c2.762,0,5-2.237,5-5v-12.166
			C362.391,796.857,360.152,794.619,357.391,794.619z"/>
		<g>
			<rect x="297.03" y="798.537" fill="#FFFFFF" width="57.217" height="14.779"/>
			<g>
				<g>
					<path fill="#FFFFFF" d="M251,803.537l-2.016,5.854h-1.906l-0.875-2.734c-0.061-0.168-0.12-0.479-0.133-0.54l-0.144,0.54
						l-0.899,2.734h-1.906c-0.66-1.943-1.319-3.897-1.968-5.854h1.812l0.911,3.227c0.084,0.324,0.168,0.708,0.191,0.78
						c0.013-0.062,0.097-0.433,0.204-0.78l0.947-3.227h1.703l0.923,3.227c0.096,0.349,0.168,0.744,0.18,0.792
						c0.013-0.048,0.108-0.433,0.217-0.792l0.936-3.227H251z"/>
					<path fill="#FFFFFF" d="M256.654,809.39c-0.72,0-1.211-0.384-1.475-0.995c-0.336,0.563-1.043,1.115-2.087,1.115
						c-1.295,0-1.955-0.84-1.955-1.715c0-0.973,0.792-1.919,2.423-1.919c0.492,0,0.971,0.06,1.415,0.144v-0.192
						c0-0.574-0.396-0.959-1.043-0.959c-0.456,0-0.828,0.204-1.067,0.588l-1.175-0.876c0,0,0.671-1.198,2.327-1.198
						c1.631,0,2.626,0.972,2.626,2.375v1.763c0,0.216,0.145,0.348,0.36,0.348h0.24v1.523L256.654,809.39L256.654,809.39z
						 M254.975,807.063c-0.312-0.06-0.696-0.119-0.923-0.119c-0.684,0-1.211,0.229-1.211,0.707c0,0.324,0.24,0.54,0.684,0.54
						C254.231,808.19,254.759,807.698,254.975,807.063z"/>
					<path fill="#FFFFFF" d="M259.188,800.622c0.601,0,1.104,0.505,1.104,1.104s-0.504,1.104-1.104,1.104
						c-0.6,0-1.104-0.504-1.104-1.104S258.588,800.622,259.188,800.622z M258.313,809.39v-5.854h1.715v5.854H258.313z"/>
					<path fill="#FFFFFF" d="M262.116,803.537v-2.087h1.679v2.087h0.828v1.56h-0.828v4.294h-1.679v-4.294h-0.815v-1.56H262.116z"/>
					<path fill="#FFFFFF" d="M274.894,809.39h-1.679v-0.396c0-0.097,0.012-0.239,0.036-0.407c-0.384,0.552-0.984,0.946-1.775,0.946
						c-1.211,0-2.123-0.946-2.123-2.519v-3.479h1.691v3.383c0,0.814,0.516,1.234,1.08,1.234c0.503,0,1.055-0.396,1.091-1.188v-3.431
						h1.679V809.39L274.894,809.39z"/>
					<path fill="#FFFFFF" d="M278.111,809.39h-1.679v-5.854h1.679v0.396c0,0.096-0.012,0.24-0.035,0.408
						c0.384-0.553,0.972-0.948,1.774-0.948c1.211,0,2.123,0.948,2.123,2.519v3.479h-1.691v-3.382c0-0.815-0.516-1.235-1.079-1.235
						c-0.505,0-1.067,0.407-1.092,1.188V809.39L278.111,809.39z"/>
					<path fill="#FFFFFF" d="M283.968,803.537v-2.087h1.679v2.087h0.828v1.56h-0.828v4.294h-1.679v-4.294h-0.815v-1.56H283.968z"/>
					<path fill="#FFFFFF" d="M288.587,800.622c0.6,0,1.104,0.505,1.104,1.104s-0.504,1.104-1.104,1.104
						c-0.601,0-1.104-0.504-1.104-1.104S287.988,800.622,288.587,800.622z M287.712,809.39v-5.854h1.715v5.854H287.712z"/>
					<path fill="#FFFFFF" d="M291.06,809.39v-8.995h1.703v8.995H291.06z"/>
				</g>
			</g>
		</g>
	</g>
</g>
</svg>
