<?xml version="1.0" encoding="utf-8"?>
<!-- Generator: Adobe Illustrator 15.0.0, SVG Export Plug-In . SVG Version: 6.00 Build 0)  -->
<!DOCTYPE svg PUBLIC "-//W3C//DTD SVG 1.1//EN" "http://www.w3.org/Graphics/SVG/1.1/DTD/svg11.dtd">
<svg version="1.1" id="Layer_1" xmlns="http://www.w3.org/2000/svg" xmlns:xlink="http://www.w3.org/1999/xlink" x="0px" y="0px"
	 width="115.501px" height="69.328px" viewBox="239.89 18.566 115.501 69.328"
	 enable-background="new 239.89 18.566 115.501 69.328" xml:space="preserve">
<g>
	<g>
		<path fill="#F2AF31" d="M351.223,62.9h-66.83l-2.051,2.539c-0.189,0.234-0.476,0.372-0.777,0.372h-7.758
			c-0.302,0-0.588-0.138-0.777-0.372l-2.051-2.539h-8.089c-2.761,0-5-2.238-5-5V45.733c0-2.762,2.239-5,5-5h5.984h2.1h0.005
			l2.051,2.539c0.189,0.234,0.477,0.372,0.777,0.372h7.758c0.303,0,0.588-0.138,0.777-0.372l2.051-2.539h0.005h65.993
			c2.762,0,5-2.238,5-5V23.566c0-2.762-2.238-5-5-5h-83.993l-2.056,2.545c-0.189,0.235-0.476,0.372-0.777,0.372h-7.758
			c-0.302,0-0.588-0.137-0.776-0.372l-2.057-2.545h-8.084c-2.718,0-4.919,2.172-4.987,4.875h-0.013v0.125v12.167v32.083v9.438v2.729
			c0,2.762,2.239,5,5,5h8.089l2.052,2.539c0.188,0.234,0.476,0.372,0.776,0.372h7.757c0.304,0,0.588-0.138,0.778-0.372l2.051-2.539
			h83.998c2.762,0,5-2.238,5-5V67.816C355.391,65.34,353.586,63.299,351.223,62.9z"/>
		<g>
			<g>
				<g>
					<path fill="#FFFFFF" d="M257.819,33.129h-1.679v-5.853h1.679v0.396c0,0.133-0.023,0.349-0.06,0.576
						c0.336-0.636,0.863-1.116,1.631-1.116v1.645c-0.875,0-1.571,0.504-1.571,1.463V33.129z"/>
					<path fill="#FFFFFF" d="M261.923,30.563c0.12,0.972,0.72,1.331,1.379,1.331c0.648,0,1.091-0.3,1.379-0.721l1.115,0.805
						c-0.624,0.84-1.259,1.271-2.59,1.271c-1.715,0-2.976-1.26-2.976-3.059c0-1.667,1.127-3.046,2.926-3.046
						c1.979,0,2.76,1.415,2.76,3.214v0.204L261.923,30.563L261.923,30.563z M261.971,29.531h2.314
						c-0.108-0.672-0.624-1.02-1.14-1.02C262.606,28.512,262.139,28.848,261.971,29.531z"/>
					<path fill="#FFFFFF" d="M267.096,36.127v-8.851h1.679v0.588c0.456-0.48,1.056-0.72,1.703-0.72c1.619,0,2.542,1.475,2.542,3.034
						c0,1.583-0.888,3.069-2.531,3.069c-0.684,0-1.318-0.336-1.774-0.888v3.766L267.096,36.127L267.096,36.127z M271.354,30.202
						c0-0.863-0.432-1.559-1.308-1.559c-0.779,0-1.295,0.646-1.295,1.547c0,0.804,0.526,1.571,1.295,1.571
						C270.91,31.762,271.354,31.054,271.354,30.202z"/>
					<path fill="#FFFFFF" d="M275.531,30.563c0.12,0.972,0.721,1.331,1.38,1.331c0.646,0,1.091-0.3,1.379-0.721l1.114,0.805
						c-0.624,0.84-1.259,1.271-2.59,1.271c-1.715,0-2.975-1.26-2.975-3.059c0-1.667,1.127-3.046,2.926-3.046
						c1.979,0,2.759,1.415,2.759,3.214v0.204L275.531,30.563L275.531,30.563z M275.579,29.531h2.313
						c-0.107-0.672-0.624-1.02-1.139-1.02C276.215,28.512,275.747,28.848,275.579,29.531z"/>
					<path fill="#FFFFFF" d="M286.053,33.129c-0.72,0-1.211-0.384-1.475-0.994c-0.336,0.563-1.043,1.114-2.087,1.114
						c-1.296,0-1.955-0.84-1.955-1.715c0-0.972,0.792-1.919,2.423-1.919c0.492,0,0.971,0.06,1.415,0.145v-0.192
						c0-0.575-0.396-0.959-1.043-0.959c-0.456,0-0.828,0.204-1.067,0.588l-1.175-0.876c0,0,0.671-1.199,2.327-1.199
						c1.631,0,2.626,0.973,2.626,2.375v1.764c0,0.216,0.144,0.348,0.359,0.348h0.24v1.522L286.053,33.129L286.053,33.129z
						 M284.374,30.802c-0.313-0.061-0.696-0.119-0.923-0.119c-0.685,0-1.212,0.228-1.212,0.707c0,0.323,0.24,0.54,0.685,0.54
						C283.63,31.93,284.158,31.438,284.374,30.802z"/>
					<path fill="#FFFFFF" d="M288.107,27.276v-2.087h1.68v2.087h0.827v1.559h-0.827v4.294h-1.68v-4.294h-0.814v-1.559H288.107z"/>
				</g>
			</g>
			<path fill="#FFFFFF" d="M297.388,29.666c0,4.244,3.439,7.685,7.684,7.685h3.152c4.242,0,7.685-3.439,7.685-7.685
				c0-4.242-3.441-7.684-7.685-7.684h-3.152C300.827,21.982,297.388,25.424,297.388,29.666
				C297.388,29.666,297.388,25.424,297.388,29.666z"/>
			<g>
				<polygon fill="#FFFFFF" points="341.18,72.024 344.185,67.79 347.226,72.011 				"/>
				<path fill="#FFFFFF" d="M347.674,71.856l-3.041-4.221c-0.085-0.117-0.258-0.19-0.448-0.19h-0.001
					c-0.19,0.001-0.364,0.075-0.448,0.193l-3.005,4.232c-0.075,0.105-0.065,0.234,0.025,0.334c0.092,0.102,0.252,0.162,0.424,0.162
					c0.001,0,0.002,0,0.002,0l2.521-0.004v1.254c0,2.832-3.341,5.138-7.443,5.138h-16.353c-0.276,0-0.5,0.153-0.5,0.346
					c0,0.188,0.224,0.345,0.5,0.345h16.353c4.655,0,8.443-2.614,8.443-5.827v-1.257l2.522-0.005
					c0.174-0.001,0.334-0.063,0.424-0.164C347.742,72.091,347.75,71.964,347.674,71.856z M344.703,71.671v-0.366
					c0-0.189-0.226-0.346-0.5-0.346c-0.277,0-0.5,0.155-0.5,0.346v0.368l-1.722,0.005l2.205-3.106l2.232,3.097L344.703,71.671z"/>
			</g>
		</g>
	</g>
</g>
</svg>
