<?xml version="1.0" encoding="utf-8"?>
<!-- Generator: Adobe Illustrator 15.0.0, SVG Export Plug-In . SVG Version: 6.00 Build 0)  -->
<!DOCTYPE svg PUBLIC "-//W3C//DTD SVG 1.1//EN" "http://www.w3.org/Graphics/SVG/1.1/DTD/svg11.dtd">
<svg version="1.1" id="Layer_1" xmlns="http://www.w3.org/2000/svg" xmlns:xlink="http://www.w3.org/1999/xlink" x="0px" y="0px"
	 width="89.499px" height="25.078px" viewBox="252.891 708.355 89.499 25.078"
	 enable-background="new 252.891 708.355 89.499 25.078" xml:space="preserve">
<g>
	<g>
		<path fill="#F2AF31" d="M337.39,708.355h-0.588h-6.133h-0.279h-0.588h-4.785h-1.348h-7.319h-36.951l-2.056,2.545
			c-0.19,0.234-0.476,0.371-0.778,0.371h-7.757c-0.303,0-0.588-0.137-0.778-0.371l-2.056-2.545h-8.083c-2.762,0-5,2.238-5,5v12.166
			c0,2.762,2.238,5,5,5h8.088l2.051,2.539c0.19,0.236,0.477,0.373,0.778,0.373h7.757c0.304,0,0.588-0.137,0.778-0.373l2.051-2.539
			h36.956h7.319h1.348h4.785h0.588h0.279h6.133h0.588c2.762,0,5-2.238,5-5v-12.166C342.39,710.594,340.151,708.355,337.39,708.355z"
			/>
		<g>
			<g>
				<g>
					<path fill="#FFFFFF" d="M269.564,717.271l-2.015,5.852h-1.907l-0.875-2.733c-0.06-0.168-0.12-0.479-0.132-0.539l-0.145,0.539
						l-0.898,2.733h-1.907c-0.66-1.942-1.319-3.896-1.967-5.852h1.811l0.911,3.225c0.084,0.324,0.168,0.709,0.192,0.781
						c0.012-0.061,0.096-0.432,0.204-0.781l0.946-3.225h1.703l0.924,3.225c0.096,0.351,0.168,0.744,0.18,0.793
						c0.012-0.049,0.107-0.432,0.216-0.793l0.936-3.225H269.564z"/>
					<path fill="#FFFFFF" d="M275.219,723.123c-0.72,0-1.211-0.383-1.475-0.993c-0.336,0.563-1.043,1.114-2.088,1.114
						c-1.295,0-1.954-0.84-1.954-1.715c0-0.973,0.792-1.92,2.423-1.92c0.492,0,0.971,0.061,1.415,0.146v-0.193
						c0-0.574-0.396-0.959-1.043-0.959c-0.456,0-0.828,0.205-1.067,0.588l-1.175-0.875c0,0,0.671-1.199,2.327-1.199
						c1.631,0,2.626,0.972,2.626,2.375v1.763c0,0.217,0.144,0.348,0.359,0.348h0.24v1.523h-0.589V723.123z M273.54,720.798
						c-0.313-0.062-0.696-0.119-0.923-0.119c-0.685,0-1.212,0.227-1.212,0.707c0,0.323,0.24,0.539,0.685,0.539
						C272.796,721.925,273.324,721.432,273.54,720.798z"/>
					<path fill="#FFFFFF" d="M277.753,714.355c0.6,0,1.104,0.504,1.104,1.104c0,0.601-0.504,1.104-1.104,1.104
						c-0.601,0-1.104-0.504-1.104-1.104C276.649,714.859,277.153,714.355,277.753,714.355z M276.877,723.123v-5.852h1.715v5.852
						H276.877z"/>
					<path fill="#FFFFFF" d="M280.681,717.271v-2.088h1.679v2.088h0.828v1.559h-0.828v4.293h-1.679v-4.293h-0.814v-1.559H280.681z"
						/>
				</g>
			</g>
			<g>
				<g>
					<path fill="#FFFFFF" d="M312.953,721.156c0.407,0.469,1.056,0.66,1.618,0.66c0.359,0,0.624-0.145,0.624-0.359
						c0-0.301-0.3-0.442-0.792-0.588c-0.91-0.264-2.039-0.768-2.039-1.955c0-1.127,1.093-1.764,2.075-1.764
						c0.889,0,1.512,0.301,2.039,0.852l-0.936,1.009c-0.252-0.275-0.721-0.527-1.067-0.527c-0.313,0-0.539,0.146-0.539,0.371
						c0,0.289,0.335,0.432,0.863,0.588c0.887,0.264,2.026,0.816,2.026,1.932c0,1.104-0.947,1.871-2.268,1.871
						c-1.056,0-1.919-0.301-2.555-0.983L312.953,721.156z"/>
					<path fill="#FFFFFF" d="M319.336,720.557c0.121,0.973,0.721,1.332,1.38,1.332c0.646,0,1.091-0.301,1.38-0.722l1.115,0.806
						c-0.624,0.84-1.26,1.271-2.591,1.271c-1.717,0-2.976-1.26-2.976-3.059c0-1.668,1.128-3.047,2.927-3.047
						c1.979,0,2.759,1.416,2.759,3.215v0.203L319.336,720.557L319.336,720.557z M319.385,719.525h2.314
						c-0.107-0.672-0.623-1.02-1.14-1.02C320.021,718.507,319.553,718.843,319.385,719.525z"/>
					<path fill="#FFFFFF" d="M328.323,719.25c-0.3-0.323-0.563-0.553-1.044-0.553c-0.778,0-1.331,0.625-1.331,1.488
						c0,0.898,0.553,1.463,1.331,1.463c0.48,0,0.841-0.264,1.093-0.623l1.26,0.959c-0.601,0.814-1.32,1.248-2.353,1.248
						c-1.763,0-3.01-1.344-3.01-3.047s1.247-3.047,2.998-3.047c0.924,0,1.655,0.396,2.219,1.031L328.323,719.25z"/>
					<path fill="#FFFFFF" d="M331.397,721.156c0.407,0.469,1.057,0.66,1.619,0.66c0.359,0,0.624-0.145,0.624-0.359
						c0-0.301-0.301-0.442-0.792-0.588c-0.911-0.264-2.039-0.768-2.039-1.955c0-1.127,1.091-1.764,2.075-1.764
						c0.887,0,1.511,0.301,2.039,0.852l-0.937,1.009c-0.252-0.275-0.721-0.527-1.067-0.527c-0.313,0-0.539,0.146-0.539,0.371
						c0,0.289,0.336,0.432,0.863,0.588c0.888,0.264,2.026,0.816,2.026,1.932c0,1.104-0.946,1.871-2.268,1.871
						c-1.056,0-1.918-0.301-2.556-0.983L331.397,721.156z"/>
				</g>
			</g>
			<path fill="#FFFFFF" d="M288.771,719.41c0,4.244,3.439,7.685,7.685,7.685h3.151c4.242,0,7.685-3.439,7.685-7.685
				c0-4.242-3.441-7.684-7.685-7.684h-3.151C292.211,711.727,288.771,715.169,288.771,719.41
				C288.771,719.41,288.771,715.169,288.771,719.41z"/>
		</g>
	</g>
</g>
</svg>
